<svg width="65.043762" height="35.062500" viewBox="0 0 65.0438 35.0625" fill="none" xmlns="http://www.w3.org/2000/svg" xmlns:xlink="http://www.w3.org/1999/xlink">
	<desc>
			Created with Pixso.
	</desc>
	<defs/>
	<path id="DSI" d="M0 34.5938L0 0.46875L10.9922 0.46875Q15.5156 0.46875 19.125 2.51953Q22.7344 4.57031 24.7617 8.30859Q26.7891 12.0469 26.8125 16.6875L26.8125 18.2578Q26.8125 22.9453 24.832 26.6602Q22.8516 30.375 19.2539 32.4727Q15.6562 34.5703 11.2266 34.5938L0 34.5938ZM8.22656 6.82031L8.22656 28.2656L11.0859 28.2656Q14.625 28.2656 16.5234 25.7461Q18.4219 23.2266 18.4219 18.2578L18.4219 16.7812Q18.4219 11.8359 16.5234 9.32812Q14.625 6.82031 10.9922 6.82031L8.22656 6.82031Z" fill="#85171A" fill-opacity="1.000000" fill-rule="evenodd"/>
	<path id="DSI" d="M46.2328 25.5234Q46.2328 23.7188 44.9555 22.7109Q43.6781 21.7031 40.4672 20.625Q37.2562 19.5469 35.2172 18.5391Q28.5844 15.2812 28.5844 9.58594Q28.5844 6.75 30.2367 4.58203Q31.8891 2.41406 34.9125 1.20703Q37.9359 0 41.7094 0Q45.3891 0 48.307 1.3125Q51.225 2.625 52.8422 5.05078Q54.4594 7.47656 54.4594 10.5938L46.2562 10.5938Q46.2562 8.50781 44.9789 7.35938Q43.7016 6.21094 41.5219 6.21094Q39.3187 6.21094 38.0414 7.18359Q36.7641 8.15625 36.7641 9.65625Q36.7641 10.9688 38.1703 12.0352Q39.5766 13.1016 43.1156 14.2383Q46.6547 15.375 48.9281 16.6875Q54.4594 19.875 54.4594 25.4766Q54.4594 29.9531 51.0844 32.5078Q47.7094 35.0625 41.8266 35.0625Q37.6781 35.0625 34.3148 33.5742Q30.9516 32.0859 29.2523 29.4961Q27.5531 26.9062 27.5531 23.5312L35.8031 23.5312Q35.8031 26.2734 37.2211 27.5742Q38.6391 28.875 41.8266 28.875Q43.8656 28.875 45.0492 27.9961Q46.2328 27.1172 46.2328 25.5234Z" fill="#DC2025" fill-opacity="1.000000" fill-rule="evenodd"/>
	<path id="DSI" d="M65.0437 34.5938L56.8406 34.5938L56.8406 0.46875L65.0437 0.46875L65.0437 34.5938Z" fill="#FEBA08" fill-opacity="1.000000" fill-rule="evenodd"/>
</svg>
